<svg width="24" height="24" viewBox="0 0 24 24" fill="none" xmlns="http://www.w3.org/2000/svg">
<g clip-path="url(#clip0_10_3029)">
<path d="M12.94 4.66669C12.9405 4.75443 12.9237 4.8414 12.8905 4.92263C12.8573 5.00385 12.8085 5.07773 12.7467 5.14002L5.88667 12L12.7467 18.86C12.8559 18.9876 12.913 19.1516 12.9065 19.3194C12.9 19.4872 12.8304 19.6463 12.7117 19.7651C12.593 19.8838 12.4338 19.9533 12.266 19.9598C12.0983 19.9663 11.9342 19.9092 11.8067 19.8L4 12L11.8067 4.19336C11.9003 4.10162 12.0188 4.0395 12.1475 4.01476C12.2762 3.99003 12.4093 4.00377 12.5303 4.05428C12.6512 4.10478 12.7546 4.18981 12.8274 4.29873C12.9003 4.40765 12.9395 4.53564 12.94 4.66669Z" fill="white"/>
<path d="M20.2734 4.66669C20.2739 4.75443 20.2571 4.8414 20.2239 4.92263C20.1907 5.00385 20.1418 5.07773 20.08 5.14002L13.22 12L20.08 18.86C20.1893 18.9876 20.2463 19.1516 20.2398 19.3194C20.2334 19.4872 20.1638 19.6463 20.0451 19.7651C19.9264 19.8838 19.7672 19.9533 19.5994 19.9598C19.4316 19.9663 19.2676 19.9092 19.14 19.8L11.3334 12L19.14 4.19336C19.2336 4.10162 19.3522 4.0395 19.4809 4.01476C19.6096 3.99003 19.7427 4.00377 19.8636 4.05427C19.9846 4.10478 20.0879 4.18981 20.1608 4.29873C20.2337 4.40765 20.2728 4.53564 20.2734 4.66669Z" fill="white"/>
</g>
<defs>
<clipPath id="clip0_10_3029">
<rect width="24" height="24" fill="white" transform="matrix(0 -1 1 0 0 24)"/>
</clipPath>
</defs>
</svg>
